<svg width="32" height="32" viewBox="0 0 32 32" fill="none" xmlns="http://www.w3.org/2000/svg">
<g clip-path="url(#clip0_1_47)">
<path d="M28 10.6667V9.33333L24 12L20 9.33333V10.6667L24 13.3333M29.3333 4H2.66667C1.95942 4 1.28115 4.28095 0.781049 4.78105C0.280952 5.28115 0 5.95942 0 6.66667L0 25.3333C0 26.0406 0.280952 26.7189 0.781049 27.219C1.28115 27.719 1.95942 28 2.66667 28H29.3333C30.0406 28 30.7189 27.719 31.219 27.219C31.719 26.7189 32 26.0406 32 25.3333V6.66667C32 5.95942 31.719 5.28115 31.219 4.78105C30.7189 4.28095 30.0406 4 29.3333 4ZM10.6667 8C11.7275 8 12.7449 8.42143 13.4951 9.17157C14.2452 9.92172 14.6667 10.9391 14.6667 12C14.6667 13.0609 14.2452 14.0783 13.4951 14.8284C12.7449 15.5786 11.7275 16 10.6667 16C9.6058 16 8.58839 15.5786 7.83824 14.8284C7.08809 14.0783 6.66667 13.0609 6.66667 12C6.66667 10.9391 7.08809 9.92172 7.83824 9.17157C8.58839 8.42143 9.6058 8 10.6667 8ZM18.6667 24H2.66667V22.6667C2.66667 20 8 18.5333 10.6667 18.5333C13.3333 18.5333 18.6667 20 18.6667 22.6667M29.3333 16H18.6667V8H29.3333" fill="#0B2537"/>
</g>
<defs>
<clipPath id="clip0_1_47">
<rect width="32" height="32" fill="white"/>
</clipPath>
</defs>
</svg>
