<svg width="24" height="24" viewBox="0 0 24 24" fill="none" xmlns="http://www.w3.org/2000/svg">
<path fill-rule="evenodd" clip-rule="evenodd" d="M17.25 3H12.75V2.25C12.75 1.836 12.414 1.5 12 1.5C11.586 1.5 11.25 1.836 11.25 2.25V3H6.75V2.25C6.75 1.836 6.414 1.5 6 1.5C5.586 1.5 5.25 1.836 5.25 2.25V3H3.75C2.508 3 1.5 4.008 1.5 5.25V20.25C1.5 21.492 2.508 22.5 3.75 22.5H20.25C21.492 22.5 22.5 21.492 22.5 20.25V5.25C22.5 4.008 21.492 3 20.25 3H18.75V2.25C18.75 1.836 18.414 1.5 18 1.5C17.586 1.5 17.25 1.836 17.25 2.25V3ZM21 9V20.25C21 20.664 20.664 21 20.25 21H3.75C3.336 21 3 20.664 3 20.25V9H21ZM6.75 15.75C5.922 15.75 5.25 16.422 5.25 17.25C5.25 18.078 5.922 18.75 6.75 18.75C7.578 18.75 8.25 18.078 8.25 17.25C8.25 16.422 7.578 15.75 6.75 15.75ZM12 15.75C11.172 15.75 10.5 16.422 10.5 17.25C10.5 18.078 11.172 18.75 12 18.75C12.828 18.75 13.5 18.078 13.5 17.25C13.5 16.422 12.828 15.75 12 15.75ZM6.75 11.25C5.922 11.25 5.25 11.922 5.25 12.75C5.25 13.578 5.922 14.25 6.75 14.25C7.578 14.25 8.25 13.578 8.25 12.75C8.25 11.922 7.578 11.25 6.75 11.25ZM12 11.25C11.172 11.25 10.5 11.922 10.5 12.75C10.5 13.578 11.172 14.25 12 14.25C12.828 14.25 13.5 13.578 13.5 12.75C13.5 11.922 12.828 11.25 12 11.25ZM17.25 11.25C16.422 11.25 15.75 11.922 15.75 12.75C15.75 13.578 16.422 14.25 17.25 14.25C18.078 14.25 18.75 13.578 18.75 12.75C18.75 11.922 18.078 11.25 17.25 11.25ZM18.75 4.5H17.25V5.25C17.25 5.664 17.586 6 18 6C18.414 6 18.75 5.664 18.75 5.25V4.5ZM12.75 4.5H11.25V5.25C11.25 5.664 11.586 6 12 6C12.414 6 12.75 5.664 12.75 5.25V4.5ZM6.75 4.5H5.25V5.25C5.25 5.664 5.586 6 6 6C6.414 6 6.75 5.664 6.75 5.25V4.5Z" fill="#0B2537"/>
</svg>
