<svg width="70" height="70" viewBox="0 0 70 70" fill="none" xmlns="http://www.w3.org/2000/svg">
<path d="M55.4167 26.25V20.4167C55.4167 18.8696 54.8021 17.3859 53.7081 16.2919C52.6142 15.198 51.1304 14.5834 49.5833 14.5834H46.6667V5.83337H40.8333V14.5834H37.9167C36.3696 14.5834 34.8858 15.198 33.7919 16.2919C32.6979 17.3859 32.0833 18.8696 32.0833 20.4167V26.25C30.5362 26.25 29.0525 26.8646 27.9585 27.9586C26.8646 29.0525 26.25 30.5363 26.25 32.0834V35H14.5833C13.0362 35 11.5525 35.6146 10.4585 36.7086C9.36458 37.8025 8.75 39.2863 8.75 40.8334V64.1667H17.5V58.3334H23.3333V64.1667H35V58.3334H40.8333V64.1667H46.6667V58.3334H52.5V64.1667H61.25V32.0834C61.25 30.5363 60.6354 29.0525 59.5415 27.9586C58.4475 26.8646 56.9638 26.25 55.4167 26.25ZM23.3333 52.5H17.5V46.6667H23.3333V52.5ZM40.8333 52.5H35V46.6667H40.8333V52.5ZM40.8333 40.8334H35V35H40.8333V40.8334ZM37.9167 26.25V20.4167H49.5833V26.25H37.9167ZM52.5 52.5H46.6667V46.6667H52.5V52.5ZM52.5 40.8334H46.6667V35H52.5V40.8334Z" fill="#0B2537"/>
</svg>
