<svg width="30" height="30" viewBox="0 0 30 30" fill="none" xmlns="http://www.w3.org/2000/svg">
<path d="M23.0357 2.14307C24.3639 2.14307 25.4995 2.61461 26.4426 3.55769C27.3856 4.50077 27.8572 5.63637 27.8572 6.9645V23.0359C27.8572 24.364 27.3856 25.4997 26.4426 26.4427C25.4995 27.3858 24.3639 27.8574 23.0357 27.8574H19.8884V17.8964H23.2199L23.7221 14.0125H19.8884V11.5348C19.8884 10.9098 20.0196 10.4411 20.2818 10.1286C20.5441 9.81606 21.0547 9.65981 21.8136 9.65981L23.8561 9.64307V6.17766C23.1529 6.07722 22.1596 6.027 20.8761 6.027C19.3583 6.027 18.1446 6.47342 17.235 7.36628C16.3254 8.25914 15.8706 9.5203 15.8706 11.1498V14.0125H12.5223V17.8964H15.8706V27.8574H6.96431C5.63619 27.8574 4.50058 27.3858 3.5575 26.4427C2.61442 25.4997 2.14288 24.364 2.14288 23.0359V6.9645C2.14288 5.63637 2.61442 4.50077 3.5575 3.55769C4.50058 2.61461 5.63619 2.14307 6.96431 2.14307H23.0357Z" fill="#0B2537"/>
</svg>
