<svg width="24" height="24" viewBox="0 0 24 24" fill="none" xmlns="http://www.w3.org/2000/svg">
<g clip-path="url(#clip0_1_398)">
<path d="M23.9287 21.2965L20.8162 18.1202L20.0287 18.8702L23.1412 22.0465C23.1904 22.0949 23.256 22.1231 23.325 22.1252C23.3586 22.1262 23.3921 22.1201 23.4231 22.1072C23.4541 22.0942 23.4821 22.0748 23.505 22.0502L23.925 21.6452C23.9675 21.5973 23.9912 21.5356 23.9919 21.4715C23.9926 21.4075 23.9702 21.3453 23.9287 21.2965ZM12.1687 20.7977C13.0175 20.5706 13.8303 20.226 14.5837 19.774C14.1491 19.6577 13.729 19.4929 13.3312 19.2827C13.0147 19.8384 12.6235 20.3481 12.1687 20.7977ZM10.6725 11.8765H10.0425V16.2715H10.65C10.0911 14.8583 10.0991 13.2839 10.6725 11.8765Z" fill="#0B2537"/>
<path d="M19.8037 10.5002C18.8439 9.52452 17.5364 8.96917 16.1678 8.95581C14.7993 8.94246 13.4812 9.47219 12.5025 10.4289C11.771 11.1434 11.2681 12.0591 11.0576 13.0597C10.847 14.0604 10.9383 15.101 11.3199 16.0497C11.7015 16.9984 12.3561 17.8125 13.2009 18.3887C14.0456 18.9649 15.0425 19.2774 16.065 19.2864H16.125C17.1419 19.2844 18.1357 18.9824 18.9818 18.4182C19.8279 17.854 20.4887 17.0527 20.8815 16.1147C21.2742 15.1766 21.3814 14.1435 21.1897 13.1448C20.998 12.1461 20.5159 11.2261 19.8037 10.5002ZM16.125 18.5064H16.08C14.933 18.4676 13.8463 17.9832 13.0507 17.156C12.2551 16.3288 11.8133 15.2241 11.8191 14.0764C11.825 12.9288 12.278 11.8286 13.082 11.0096C13.886 10.1906 14.9776 9.71726 16.125 9.69017H16.1737C17.3208 9.72937 18.4074 10.2142 19.2027 11.0418C19.998 11.8693 20.4394 12.9743 20.4331 14.122C20.4267 15.2697 19.9732 16.3697 19.1687 17.1884C18.3643 18.0071 17.2724 18.4799 16.125 18.5064Z" fill="#0B2537"/>
<path d="M18.75 11.5162C18.4129 11.166 18.0096 10.8862 17.5635 10.6931C17.1173 10.5 16.6373 10.3974 16.1512 10.3912H16.125C15.1525 10.3912 14.2194 10.7755 13.529 11.4603C12.8385 12.1451 12.4467 13.0751 12.4387 14.0475C12.43 14.5333 12.5187 15.0159 12.6997 15.4667C12.8807 15.9176 13.1503 16.3276 13.4925 16.6725C13.8296 17.0227 14.2329 17.3025 14.679 17.4956C15.1251 17.6888 15.6052 17.7914 16.0912 17.7975C17.0715 17.8054 18.0152 17.4253 18.7162 16.74C19.0619 16.3995 19.337 15.9941 19.5258 15.5471C19.7146 15.1002 19.8134 14.6203 19.8166 14.1351C19.8197 13.6499 19.7271 13.1688 19.5441 12.7195C19.3611 12.2701 19.0912 11.8612 18.75 11.5162ZM14.9025 8.35125C16.2861 8.06008 17.7282 8.27427 18.9675 8.955C18.7512 8.16074 18.4322 7.39806 18.0187 6.68625H14.55C14.6963 7.23475 14.814 7.7905 14.9025 8.35125ZM17.5162 5.89125C16.2288 4.04934 14.3323 2.72125 12.1612 2.14125C13.1672 3.20195 13.9052 4.48764 14.3137 5.89125H17.5162ZM12 9.9C12.608 9.30805 13.3355 8.85289 14.1337 8.565C14.0378 7.9322 13.9025 7.30599 13.7287 6.69H10.0425V11.0812H11.0737C11.3318 10.6503 11.643 10.2534 12 9.9ZM10.0425 1.875V5.89125H13.4737C12.6675 3.6 11.3925 2.10375 10.0425 1.875ZM4.93875 11.0812H9.2475V6.68625H5.565C5.16929 8.11847 4.95882 9.59551 4.93875 11.0812ZM5.81625 5.89125H9.2475V1.875C7.89375 2.10375 6.6225 3.6 5.81625 5.89125ZM11.9175 18.2175C11.5782 17.8727 11.2846 17.4858 11.0437 17.0662H10.0425V21.0975C10.9987 20.9287 11.9175 20.1412 12.6675 18.8475C12.4004 18.6587 12.1496 18.448 11.9175 18.2175ZM9.2475 21.1012V17.0662H5.81625C6.6225 19.3537 7.8975 20.8537 9.2475 21.1012ZM5.565 16.2712H9.2475V11.8762H4.93875C4.95936 13.3619 5.16981 14.8389 5.565 16.2712ZM1.76625 17.0662C3.05943 18.9057 4.95724 20.2328 7.12875 20.8162C6.12019 19.7575 5.38182 18.4711 4.97625 17.0662H1.76625ZM4.14375 11.8762H0C0.0608048 13.4212 0.493004 14.9288 1.26 16.2712H4.74C4.36578 14.8354 4.16559 13.3599 4.14375 11.8762ZM4.74 6.68625H1.26375C0.495852 8.02858 0.0623908 9.53605 0 11.0812H4.14375C4.16508 9.59761 4.36528 8.12195 4.74 6.68625ZM7.125 2.15625C4.95501 2.73861 3.05924 4.06619 1.77 5.90625H4.97625C5.38087 4.50179 6.11791 3.2155 7.125 2.15625Z" fill="#0B2537"/>
</g>
<defs>
<clipPath id="clip0_1_398">
<rect width="24" height="24" fill="white"/>
</clipPath>
</defs>
</svg>
