<svg width="24" height="24" viewBox="0 0 24 24" fill="none" xmlns="http://www.w3.org/2000/svg">
<path d="M6.72001 1.91553C4.07457 1.91553 1.92001 4.07009 1.92001 6.71553V17.2755C1.92001 19.921 4.07457 22.0755 6.72001 22.0755H17.28C19.9255 22.0755 22.08 19.921 22.08 17.2755V6.71553C22.08 4.07009 19.9255 1.91553 17.28 1.91553H6.72001ZM8.64283 5.77615C8.94427 5.78911 9.2211 5.95895 9.38814 6.21959C9.57822 6.51623 9.8732 6.97661 10.2572 7.57709C10.6076 8.12477 10.632 8.83214 10.3191 9.40334L9.61595 10.4037C9.42587 10.6744 9.38796 11.0209 9.51564 11.3262C9.71436 11.8014 10.0996 12.5317 10.7841 13.2162C11.4686 13.9006 12.1989 14.2859 12.6741 14.4846C12.9794 14.6123 13.3259 14.5744 13.5966 14.3843L14.5969 13.6812C15.1681 13.3682 15.8755 13.3931 16.4231 13.743C17.0236 14.127 17.484 14.422 17.7806 14.6121C18.0413 14.7791 18.2111 15.056 18.2241 15.3574C18.298 17.0681 16.9726 17.7612 16.5872 17.7612C16.3203 17.7612 13.1119 18.1258 9.49314 14.5071C5.87442 10.8884 6.23908 7.67991 6.23908 7.41303C6.23908 7.02759 6.93211 5.70223 8.64283 5.77615Z" fill="#0B2537"/>
</svg>
