<svg width="70" height="70" viewBox="0 0 70 70" fill="none" xmlns="http://www.w3.org/2000/svg">
<g clip-path="url(#clip0_1_149)">
<path d="M34.8483 70.0262L33.8158 69.5683C32.6666 69.0637 5.83331 56.945 5.83331 35V15.9717C5.83434 14.1405 6.4131 12.3563 7.48718 10.8732C8.56126 9.39017 10.0759 8.28379 11.8154 7.71166L35 0.0262451L58.1846 7.71166C59.9241 8.28379 61.4387 9.39017 62.5128 10.8732C63.5869 12.3563 64.1656 14.1405 64.1666 15.9717V35C64.1666 60.0162 37.0766 69.2854 35.9216 69.6704L34.8483 70.0262ZM35 6.1425L13.6616 13.2183C13.0811 13.408 12.5754 13.7765 12.217 14.271C11.8587 14.7656 11.666 15.3609 11.6666 15.9717V35C11.6666 51.0242 30.45 61.4192 35.1371 63.7612C39.8154 61.88 58.3333 53.2671 58.3333 35V15.9717C58.3339 15.3609 58.1413 14.7656 57.7829 14.271C57.4246 13.7765 56.9189 13.408 56.3383 13.2183L35 6.1425Z" fill="#0B2537"/>
<path d="M32.407 42.4141H32.3108C31.5726 42.4028 30.8443 42.2419 30.17 41.9411C29.4957 41.6403 28.8895 41.2059 28.3879 40.6641L21.662 33.6641L25.865 29.6333L32.41 36.4583L47.5212 21.347L51.6454 25.4712L36.3008 40.8158C35.7897 41.3265 35.1824 41.7307 34.514 42.005C33.8457 42.2794 33.1295 42.4184 32.407 42.4141Z" fill="#0B2537"/>
</g>
<defs>
<clipPath id="clip0_1_149">
<rect width="70" height="70" fill="white"/>
</clipPath>
</defs>
</svg>
