<svg width="70" height="70" viewBox="0 0 70 70" fill="none" xmlns="http://www.w3.org/2000/svg">
<g clip-path="url(#clip0_1_140)">
<path d="M35.0612 35C25.41 35 17.5612 27.1513 17.5612 17.5C17.5612 7.84875 25.4129 0 35.0612 0C44.7096 0 52.5612 7.84875 52.5612 17.5C52.5612 27.1513 44.7125 35 35.0612 35ZM40.8333 53.0367V40.8333H26.1887V53.3079C27.9242 54.3171 29.1054 56.1779 29.1054 58.3333C29.1054 61.5563 26.495 64.1667 23.2721 64.1667C20.0492 64.1667 17.4387 61.5563 17.4387 58.3333C17.4387 56.1808 18.62 54.32 20.3554 53.3079V40.8392C12.3433 40.8742 5.83333 47.3958 5.83333 55.4167V70H35V61.25C35 57.4525 37.4471 54.2442 40.8333 53.0367ZM49.5833 40.8333H46.6667V53.0367C50.0529 54.2442 52.5 57.4525 52.5 61.25V70H64.1667V55.4167C64.1667 47.3754 57.6246 40.8333 49.5833 40.8333ZM43.75 58.3333C42.14 58.3333 40.8333 59.64 40.8333 61.25V70H46.6667V61.25C46.6667 59.64 45.36 58.3333 43.75 58.3333Z" fill="#0B2537"/>
</g>
<defs>
<clipPath id="clip0_1_140">
<rect width="70" height="70" fill="white"/>
</clipPath>
</defs>
</svg>
