<svg width="70" height="70" viewBox="0 0 70 70" fill="none" xmlns="http://www.w3.org/2000/svg">
<path d="M48.125 35C49.0825 35 50.0307 34.8114 50.9154 34.445C51.8001 34.0786 52.6039 33.5415 53.281 32.8644C53.9581 32.1873 54.4952 31.3834 54.8616 30.4988C55.2281 29.6141 55.4167 28.6659 55.4167 27.7084C55.4167 25.7745 54.6484 23.9198 53.281 22.5524C51.9135 21.1849 50.0589 20.4167 48.125 20.4167C46.1911 20.4167 44.3365 21.1849 42.969 22.5524C41.6016 23.9198 40.8333 25.7745 40.8333 27.7084C40.8333 28.6659 41.0219 29.6141 41.3884 30.4988C41.7548 31.3834 42.2919 32.1873 42.969 32.8644C44.3365 34.2318 46.1911 35 48.125 35ZM26.25 32.0834C28.5706 32.0834 30.7962 31.1615 32.4372 29.5206C34.0781 27.8796 35 25.654 35 23.3334C35 21.0127 34.0781 18.7871 32.4372 17.1462C30.7962 15.5052 28.5706 14.5834 26.25 14.5834C23.9293 14.5834 21.7038 15.5052 20.0628 17.1462C18.4219 18.7871 17.5 21.0127 17.5 23.3334C17.5 25.654 18.4219 27.8796 20.0628 29.5206C21.7038 31.1615 23.9293 32.0834 26.25 32.0834ZM48.125 40.8334C42.7875 40.8334 32.0833 43.5167 32.0833 48.8542V55.4167H64.1667V48.8542C64.1667 43.5167 53.4625 40.8334 48.125 40.8334ZM26.25 37.9167C19.4542 37.9167 5.83333 41.3292 5.83333 48.125V55.4167H26.25V48.8542C26.25 46.375 27.2125 42.0292 33.1625 38.7334C30.625 38.2084 28.175 37.9167 26.25 37.9167Z" fill="#0B2537"/>
</svg>
