<svg width="32" height="32" viewBox="0 0 32 32" fill="none" xmlns="http://www.w3.org/2000/svg">
<path d="M22.6667 12C22.6667 10.1587 21.92 8.49204 20.7147 7.28671C19.508 6.08004 17.8413 5.33337 16 5.33337C14.1587 5.33337 12.492 6.08004 11.2853 7.28671C10.08 8.49204 9.33333 10.1587 9.33333 12C9.33333 13.8414 10.08 15.508 11.2853 16.7134C12.492 17.92 14.1587 18.6667 16 18.6667C17.8413 18.6667 19.508 17.92 20.7147 16.7134C21.3345 16.095 21.826 15.3603 22.161 14.5515C22.496 13.7426 22.6678 12.8755 22.6667 12ZM8 25.3334C8 26.6667 11 28 16 28C20.6907 28 24 26.6667 24 25.3334C24 22.6667 20.8613 20 16 20C11 20 8 22.6667 8 25.3334Z" fill="#0B2537"/>
</svg>
